# File created by Blade
# Date/Time:  Wed Jan 21 14:37:15 2015
# Frame Rate: 120.000 fps
#------------------------------------------------------
:FULLY-SPECIFIED
:DEGREES
914
root 18.794062 35.502413 -21.998620 -172.127634 -2.829230 -178.425495
Spine -17.220732 -1.926067 1.365171
Head 6.779287 -1.216854 3.077215
LeftShoulder -14.370981 -36.154352 23.579877
LeftArm -5.543978 3.086242 -9.947368
LeftForeArm 21.300275 0.000000 -1.678429
LeftHand -5.165163 -0.000000 -5.467328
LeftHandThumb1 -26.253704 0.000000 33.147579
RightShoulder -11.945300 1.122680 -12.698374
RightArm -0.113362 39.176024 12.114536
RightForeArm -39.028808 -0.000000 6.324558
RightHand -4.499255 -0.000000 8.868586
RightHandThumb1 -24.326973 -0.000000 -32.862282
LeftUpLeg -0.252239 12.082070 1.962215
LeftLeg -6.205931 -0.000000 0.000000
LeftFoot -20.194764 29.170584 -11.640783
LeftToeBase 27.186599 -0.000000 -0.000000
RightUpLeg -0.717550 -9.399657 2.070692
RightLeg -3.442177 -0.000000 0.000000
RightFoot -20.908577 -26.453574 14.338193
RightToeBase 23.673057 -0.000000 -0.000000
915
root 18.794192 35.502000 -22.003239 -172.127795 -2.814545 -178.419637
Spine -17.214940 -1.917975 1.380608
Head 6.778275 -1.204010 3.088932
LeftShoulder -14.373075 -36.179701 23.602292
LeftArm -5.534275 3.139613 -9.956436
LeftForeArm 21.274657 0.000000 -1.659631
LeftHand -5.254562 -0.000000 -5.479912
LeftHandThumb1 -26.253704 0.000000 33.147579
RightShoulder -11.967778 1.142945 -12.691271
RightArm -0.135146 39.099317 12.085284
RightForeArm -38.876172 -0.000000 6.370803
RightHand -4.587298 -0.000000 8.922670
RightHandThumb1 -24.326973 -0.000000 -32.862282
LeftUpLeg -0.240761 12.079804 1.970349
LeftLeg -6.204399 -0.000000 0.000000
LeftFoot -20.210746 29.170695 -11.654992
LeftToeBase 27.203637 -0.000000 -0.000000
RightUpLeg -0.694739 -9.319264 2.069944
RightLeg -3.470529 -0.000000 0.000000
RightFoot -20.906909 -26.495445 14.361878
RightToeBase 23.638352 -0.000000 -0.000000
916
root 18.793473 35.501451 -22.008086 -172.128411 -2.791761 -178.422388
Spine -17.208762 -1.904963 1.389443
Head 6.784129 -1.189365 3.090081
LeftShoulder -14.373266 -36.172321 23.606436
LeftArm -5.510317 3.156606 -9.950930
LeftForeArm 21.267580 -0.000000 -1.647437
LeftHand -5.288697 -0.000000 -5.490661
LeftHandThumb1 -26.253704 0.000000 33.147579
RightShoulder -11.988072 1.143898 -12.682172
RightArm -0.135278 39.147464 12.068158
RightForeArm -38.834133 0.000000 6.394758
RightHand -4.650234 -0.000000 8.912063
RightHandThumb1 -24.326973 -0.000000 -32.862282
LeftUpLeg -0.223714 12.086182 1.967637
LeftLeg -6.211801 -0.000000 0.000000
LeftFoot -20.211608 29.175824 -11.661882
LeftToeBase 27.166822 -0.000000 -0.000000
RightUpLeg -0.680725 -9.288612 2.059879
RightLeg -3.480783 -0.000000 0.000000
RightFoot -20.903711 -26.493853 14.352737
RightToeBase 23.679993 -0.000000 -0.000000
917
root 18.792655 35.500721 -22.012514 -172.130314 -2.782364 -178.426183
Spine -17.198496 -1.915303 1.402079
Head 6.782966 -1.170918 3.090186
LeftShoulder -14.392195 -36.178667 23.624615
LeftArm -5.485473 3.189931 -9.946301
LeftForeArm 21.257348 0.000000 -1.651861
LeftHand -5.243546 0.000000 -5.481849
LeftHandThumb1 -26.253704 0.000000 33.147579
RightShoulder -12.001735 1.145168 -12.684534
RightArm -0.120729 39.159681 12.085504
RightForeArm -38.873523 0.000000 6.388101
RightHand -4.672600 -0.000000 8.805976
RightHandThumb1 -24.326973 -0.000000 -32.862282
LeftUpLeg -0.215033 12.086121 1.963885
LeftLeg -6.209709 -0.000000 0.000000
LeftFoot -20.235327 29.187539 -11.683472
LeftToeBase 27.198044 -0.000000 -0.000000
RightUpLeg -0.666456 -9.270261 2.050906
RightLeg -3.489191 -0.000000 0.000000
RightFoot -20.913788 -26.486793 14.367578
RightToeBase 23.651337 -0.000000 -0.000000
918
root 18.792376 35.499953 -22.017224 -172.136142 -2.771422 -178.424792
Spine -17.177353 -1.906722 1.416602
Head 6.773153 -1.161169 3.081755
LeftShoulder -14.409994 -36.185093 23.637330
LeftArm -5.443276 3.203834 -9.948284
LeftForeArm 21.242934 -0.000000 -1.657652
LeftHand -5.217825 -0.000000 -5.496137
LeftHandThumb1 -26.253704 0.000000 33.147579
RightShoulder -12.044231 1.172409 -12.675502
RightArm -0.099091 39.157258 12.065511
RightForeArm -38.806688 -0.000000 6.378169
RightHand -4.619576 0.000000 8.746746
RightHandThumb1 -24.326973 -0.000000 -32.862282
LeftUpLeg -0.198634 12.087319 1.967292
LeftLeg -6.209518 -0.000000 0.000000
LeftFoot -20.166166 29.205850 -11.610797
LeftToeBase 27.004808 -0.000000 -0.000000
RightUpLeg -0.649597 -9.248108 2.047370
RightLeg -3.501053 -0.000000 0.000000
RightFoot -20.929446 -26.508970 14.382901
RightToeBase 23.713656 -0.000000 -0.000000
919
root 18.791684 35.499649 -22.022301 -172.135251 -2.750170 -178.429876
Spine -17.173112 -1.901946 1.423223
Head 6.780501 -1.146932 3.079786
LeftShoulder -14.415324 -36.183507 23.621936
LeftArm -5.382192 3.204571 -9.918917
LeftForeArm 21.224743 -0.000000 -1.719666
LeftHand -5.159579 -0.000000 -5.415821
LeftHandThumb1 -26.253704 0.000000 33.147579
RightShoulder -12.062281 1.175767 -12.670032
RightArm -0.079431 39.166552 12.066500
RightForeArm -38.779677 0.000000 6.361019
RightHand -4.597904 -0.000000 8.715582
RightHandThumb1 -24.326973 -0.000000 -32.862282
LeftUpLeg -0.185310 12.103514 1.962593
LeftLeg -6.212795 -0.000000 0.000000
LeftFoot -20.249381 29.196605 -11.685597
LeftToeBase 27.168845 -0.000000 -0.000000
RightUpLeg -0.640559 -9.222360 2.034938
RightLeg -3.501379 -0.000000 0.000000
RightFoot -20.905204 -26.497173 14.333575
RightToeBase 23.642303 -0.000000 -0.000000
920
root 18.791043 35.499250 -22.027318 -172.135017 -2.737410 -178.425071
Spine -17.166745 -1.913948 1.448788
Head 6.786741 -1.126570 3.062078
LeftShoulder -14.455959 -36.206505 23.684151
LeftArm -5.411831 3.251336 -9.942194
LeftForeArm 21.220683 -0.000000 -1.649180
LeftHand -5.165336 -0.000000 -5.487470
LeftHandThumb1 -26.253704 0.000000 33.147579
RightShoulder -12.066327 1.192402 -12.673247
RightArm -0.077887 39.161215 12.063981
RightForeArm -38.765480 0.000000 6.373836
RightHand -4.624994 0.000000 8.716607
RightHandThumb1 -24.326973 -0.000000 -32.862282
LeftUpLeg -0.174757 12.109264 1.965983
LeftLeg -6.214310 -0.000000 0.000000
LeftFoot -20.259590 29.209096 -11.712247
LeftToeBase 27.096402 -0.000000 -0.000000
RightUpLeg -0.630853 -9.195156 2.034410
RightLeg -3.506944 -0.000000 0.000000
RightFoot -20.918634 -26.501903 14.366975
RightToeBase 23.665983 -0.000000 -0.000000
921
root 18.790781 35.498673 -22.031926 -172.132661 -2.715345 -178.425488
Spine -17.160344 -1.907529 1.464039
Head 6.779573 -1.122883 3.041831
LeftShoulder -14.476900 -36.179812 23.692541
LeftArm -5.370133 3.275367 -9.952750
LeftForeArm 21.108735 -0.000000 -1.656990
LeftHand -5.227444 0.000000 -5.399947
LeftHandThumb1 -26.253704 0.000000 33.147579
RightShoulder -12.099502 1.219572 -12.674353
RightArm -0.041054 39.164547 12.068972
RightForeArm -38.743188 -0.000000 6.357321
RightHand -4.601115 0.000000 8.749981
RightHandThumb1 -24.326973 -0.000000 -32.862282
LeftUpLeg -0.161490 12.123338 1.962912
LeftLeg -6.224079 -0.000000 0.000000
LeftFoot -20.268667 29.217956 -11.718597
LeftToeBase 27.144300 -0.000000 -0.000000
RightUpLeg -0.620177 -9.169183 2.028290
RightLeg -3.519089 -0.000000 0.000000
RightFoot -20.907773 -26.502621 14.338259
RightToeBase 23.692299 -0.000000 -0.000000
922
root 18.789380 35.498440 -22.036377 -172.130539 -2.697227 -178.436344
Spine -17.156155 -1.910788 1.467812
Head 6.781838 -1.108067 3.016386
LeftShoulder -14.482721 -36.153703 23.691745
LeftArm -5.356005 3.294955 -9.941728
LeftForeArm 21.044936 -0.000000 -1.636432
LeftHand -5.280287 -0.000000 -5.394683
LeftHandThumb1 -26.253704 0.000000 33.147579
RightShoulder -12.120031 1.200947 -12.669668
RightArm 0.000717 39.223084 12.095237
RightForeArm -38.812023 -0.000000 6.328945
RightHand -4.567557 0.000000 8.718724
RightHandThumb1 -24.326973 -0.000000 -32.862282
LeftUpLeg -0.157890 12.134555 1.949221
LeftLeg -6.214073 -0.000000 0.000000
LeftFoot -20.285371 29.224257 -11.753461
LeftToeBase 27.080707 -0.000000 -0.000000
RightUpLeg -0.607294 -9.131479 2.012637
RightLeg -3.536480 -0.000000 0.000000
RightFoot -20.917666 -26.527897 14.357156
RightToeBase 23.643422 -0.000000 -0.000000
923
root 18.788904 35.498241 -22.040686 -172.122217 -2.681065 -178.444661
Spine -17.156228 -1.912943 1.473568
Head 6.771206 -1.090144 2.990056
LeftShoulder -14.494187 -36.164846 23.711563
LeftArm -5.359920 3.315880 -9.940108
LeftForeArm 21.027212 -0.000000 -1.636144
LeftHand -5.357455 -0.000000 -5.278233
LeftHandThumb1 -26.253704 0.000000 33.147579
RightShoulder -12.144024 1.186546 -12.666014
RightArm 0.036845 39.263376 12.115409
RightForeArm -38.809351 -0.000000 6.315376
RightHand -4.547794 -0.000000 8.732049
RightHandThumb1 -24.326973 -0.000000 -32.862282
LeftUpLeg -0.155905 12.126650 1.940379
LeftLeg -6.214369 -0.000000 0.000000
LeftFoot -20.282691 29.252403 -11.755800
LeftToeBase 26.941409 -0.000000 -0.000000
RightUpLeg -0.601151 -9.139310 2.001422
RightLeg -3.552006 -0.000000 0.000000
RightFoot -20.902631 -26.504960 14.341021
RightToeBase 23.670986 -0.000000 -0.000000
924
root 18.787905 35.497973 -22.045025 -172.118839 -2.662730 -178.450239
Spine -17.152858 -1.922226 1.486015
Head 6.768191 -1.100374 2.957776
LeftShoulder -14.511273 -36.159266 23.735401
LeftArm -5.374498 3.300047 -9.938104
LeftForeArm 21.051749 -0.000000 -1.617207
LeftHand -5.320991 -0.000000 -5.278811
LeftHandThumb1 -26.253704 0.000000 33.147579
RightShoulder -12.154841 1.188283 -12.681181
RightArm 0.057888 39.274623 12.152358
RightForeArm -38.817961 0.000000 6.330835
RightHand -4.491062 -0.000000 8.781663
RightHandThumb1 -24.326973 -0.000000 -32.862282
LeftUpLeg -0.148086 12.132656 1.930522
LeftLeg -6.217520 -0.000000 0.000000
LeftFoot -20.297357 29.265382 -11.774717
LeftToeBase 27.060237 -0.000000 -0.000000
RightUpLeg -0.595283 -9.133594 1.991795
RightLeg -3.557037 -0.000000 0.000000
RightFoot -20.900447 -26.493458 14.332084
RightToeBase 23.640448 -0.000000 -0.000000
925
root 18.786968 35.497752 -22.049471 -172.119287 -2.648075 -178.459485
Spine -17.144325 -1.939042 1.494874
Head 6.758475 -1.081124 2.932025
LeftShoulder -14.522706 -36.155729 23.743371
LeftArm -5.378914 3.302693 -9.916632
LeftForeArm 21.058816 -0.000000 -1.613244
LeftHand -5.294463 -0.000000 -5.279924
LeftHandThumb1 -26.253704 0.000000 33.147579
RightShoulder -12.165767 1.162313 -12.670054
RightArm 0.111907 39.288318 12.177501
RightForeArm -38.768096 -0.000000 6.302914
RightHand -4.525363 -0.000000 8.780037
RightHandThumb1 -24.326973 -0.000000 -32.862282
LeftUpLeg -0.143063 12.133826 1.919808
LeftLeg -6.206673 -0.000000 0.000000
LeftFoot -20.311402 29.278344 -11.796394
LeftToeBase 27.074912 -0.000000 -0.000000
RightUpLeg -0.583974 -9.138632 1.979455
RightLeg -3.567898 -0.000000 0.000000
RightFoot -20.898072 -26.483412 14.321514
RightToeBase 23.669328 -0.000000 -0.000000
